<?xml version="1.0" encoding="utf-8"?>
<!-- Generator: Adobe Illustrator 17.0.0, SVG Export Plug-In . SVG Version: 6.00 Build 0)  -->
<!DOCTYPE svg PUBLIC "-//W3C//DTD SVG 1.1//EN" "http://www.w3.org/Graphics/SVG/1.1/DTD/svg11.dtd">
<svg version="1.1" id="Layer_1" xmlns="http://www.w3.org/2000/svg" xmlns:xlink="http://www.w3.org/1999/xlink" x="0px" y="0px"
	 width="512px" height="512px" viewBox="0 0 512 512" enable-background="new 0 0 512 512" xml:space="preserve">
<g>
	<path fill="#545861" d="M143.529,216.433l-22.256-4.51c-1.191,5.816-1.985,11.831-2.397,17.897l22.575,1.502
		C141.793,226.24,142.556,221.298,143.529,216.433z"/>
	<path fill="#545861" d="M248.94,124.511l-1.358-22.64c-5.956,0.36-11.971,1.125-17.868,2.265l4.334,22.304
		C238.922,125.494,243.881,124.817,248.94,124.511z"/>
	<path fill="#545861" d="M153.105,188.001l-20.259-10.012c-2.662,5.39-4.985,10.978-6.912,16.603l21.498,7.334
		C149.064,197.146,150.889,192.462,153.105,188.001z"/>
	<path fill="#545861" d="M283.375,104.357c-5.838-1.184-11.838-1.993-17.824-2.412l-1.576,22.582
		c5.081,0.354,10.024,1.121,14.887,2.106L283.375,104.357z"/>
	<path fill="#545861" d="M169.962,163.141l-16.983-15.049c-3.956,4.478-7.676,9.279-11.044,14.287l18.838,12.662
		C163.584,170.867,166.646,166.893,169.962,163.141z"/>
	<path fill="#545861" d="M192.578,143.454l-12.585-18.906c-4.985,3.309-9.794,6.978-14.279,10.897l14.855,17.049
		C184.347,149.2,188.396,146.233,192.578,143.454z"/>
	<path fill="#545861" d="M219.468,130.21l-7.225-21.471c-5.676,1.912-11.265,4.213-16.632,6.846l9.978,20.354
		C210.071,133.742,214.693,131.814,219.468,130.21z"/>
	<path fill="#545861" d="M317.346,116.04c-5.382-2.676-10.956-5.015-16.588-6.949l-7.394,21.472
		c4.782,1.645,9.469,3.487,13.931,5.718L317.346,116.04z"/>
	<path fill="#545861" d="M370.534,232.259l22.635-1.314c-0.338-6.044-1.088-12.066-2.221-17.89l-22.318,4.3
		C369.567,222.235,370.24,227.196,370.534,232.259z"/>
	<path fill="#545861" d="M364.896,202.798l21.508-7.132c-1.897-5.699-4.191-11.324-6.809-16.721l-20.381,9.94
		C361.402,193.376,363.304,198.014,364.896,202.798z"/>
	<path fill="#545861" d="M351.724,175.861l18.96-12.512c-3.265-4.949-6.926-9.765-10.868-14.324l-17.106,14.815
		C345.994,167.627,348.955,171.673,351.724,175.861z"/>
	<path fill="#545861" d="M347.155,136.217c-4.456-3.963-9.235-7.669-14.191-11.029l-12.746,18.794
		c4.162,2.819,8.129,5.881,11.87,9.201L347.155,136.217z"/>
	<path fill="#545861" d="M342.382,314.494l17.126,14.922c3.941-4.515,7.603-9.309,10.897-14.257l-18.882-12.588
		C348.733,306.755,345.676,310.727,342.382,314.494z"/>
	<path fill="#545861" d="M319.859,334.311l12.693,18.847c4.985-3.353,9.765-7.044,14.221-10.971l-14.936-16.959
		C328.073,328.54,324.027,331.512,319.859,334.311z"/>
	<path fill="#545861" d="M359.088,289.574l20.332,9.93c2.647-5.404,4.941-11.015,6.838-16.676l-21.546-7.202
		C363.102,280.415,361.282,285.1,359.088,289.574z"/>
	<path fill="#545861" d="M368.566,261.094l22.28,4.314c1.132-5.853,1.897-11.831,2.279-17.779l-22.537-1.434
		C370.271,251.28,369.515,256.223,368.566,261.094z"/>
	<path fill="#545861" d="M147.24,275.808l-21.468,7.21c1.897,5.64,4.206,11.25,6.882,16.684l20.363-10.034
		C150.811,285.19,148.856,280.58,147.24,275.808z"/>
	<path fill="#545861" d="M160.556,302.667l-18.916,12.586c3.309,4.971,7,9.787,10.971,14.316l17.002-14.912
		C166.311,310.888,163.345,306.842,160.556,302.667z"/>
	<path fill="#545861" d="M165.316,342.29c4.471,3.934,9.265,7.625,14.25,10.971l12.653-18.855
		c-4.176-2.798-8.144-5.856-11.902-9.158L165.316,342.29z"/>
	<path fill="#545861" d="M141.491,246.357l-22.66,1.515c0.412,6,1.191,11.971,2.324,17.757l22.295-4.371
		C142.489,256.381,141.81,251.418,141.491,246.357z"/>
	<path fill="#545861" d="M350.094,239.315c0-52.066-42.207-94.272-94.272-94.272c-52.063,0-94.271,42.206-94.271,94.272
		c0,35.659,19.812,66.676,49.018,82.694v56.45h0.01c0.115,24.896,20.322,45.044,45.243,45.044c24.922,0,45.13-20.148,45.243-45.044
		h0.011v-56.45C330.282,305.992,350.094,274.974,350.094,239.315z M278.476,378.358c-0.056,12.438-10.219,22.558-22.654,22.558
		c-12.435,0-22.602-10.124-22.665-22.456v-12.809h45.322L278.476,378.358z M290.214,302.204l-11.724,6.429l-0.003,13.371
		l-0.004,21.058h-45.326v-21.053v-13.374l-11.726-6.431c-23.003-12.616-37.292-36.713-37.292-62.889
		c0-39.527,32.157-71.684,71.683-71.684c39.527,0,71.684,32.157,71.684,71.684C327.506,265.492,313.216,289.589,290.214,302.204z"/>
</g>
</svg>
