<?xml version="1.0" encoding="utf-8"?>
<!-- Generator: Adobe Illustrator 17.0.0, SVG Export Plug-In . SVG Version: 6.00 Build 0)  -->
<!DOCTYPE svg PUBLIC "-//W3C//DTD SVG 1.1//EN" "http://www.w3.org/Graphics/SVG/1.1/DTD/svg11.dtd">
<svg version="1.1" id="Layer_1" xmlns="http://www.w3.org/2000/svg" xmlns:xlink="http://www.w3.org/1999/xlink" x="0px" y="0px"
	 width="512px" height="512px" viewBox="0 0 512 512" enable-background="new 0 0 512 512" xml:space="preserve">
<path fill="#545861" d="M342.245,191.564l-85.714-107.74l-0.349-0.439l-0.349,0.439l-85.714,107.74l-87.113,109.5h42.131
	l18.944,128.604h70.016h41.737h0.699h41.644h0.061V407.08h-0.061v-89.649h-84.08v89.649h-50.511l-16.102-109.308l-2.842-19.296
	H129.84l57.955-72.848l68.387-85.96l68.387,85.96l57.955,72.848h-14.801l-2.843,19.296l-19.413,131.896h22.816l18.944-128.604
	h42.131L342.245,191.564z M236.684,340.019h38.903v67.061h-19.755h-19.149V340.019z"/>
</svg>
