<svg id="Icons" xmlns="http://www.w3.org/2000/svg" viewBox="0 0 32 32"><defs><style>.cls-1{fill:#3a343a;}</style></defs><title>create</title><path class="cls-1" d="M8.09,5A11.48,11.48,0,0,1,9.38,4L8.27,2.3A14.35,14.35,0,0,0,6.76,3.49Z"/><path class="cls-1" d="M6,7.34A11.5,11.5,0,0,1,7,6L5.53,4.71A15.83,15.83,0,0,0,4.35,6.23Z"/><path class="cls-1" d="M10.67,3.24a11.92,11.92,0,0,1,1.52-.64L11.55.7a15.35,15.35,0,0,0-1.77.74Z"/><path class="cls-1" d="M4.66,10.15a11.86,11.86,0,0,1,.63-1.52l-1.8-.89a13.71,13.71,0,0,0-.73,1.77Z"/><path class="cls-1" d="M4.06,13.22a11.13,11.13,0,0,1,.2-1.64l-2-.39a13.33,13.33,0,0,0-.24,1.9Z"/><path class="cls-1" d="M13.63,2.2A11,11,0,0,1,15.26,2l-.12-2a13.29,13.29,0,0,0-1.91.24Z"/><path class="cls-1" d="M16.75,2a11,11,0,0,1,1.64.2l.39-2A14.94,14.94,0,0,0,16.88,0Z"/><path class="cls-1" d="M28.56,7.72l-1.79.89a11.43,11.43,0,0,1,.63,1.53l1.9-.64A12.6,12.6,0,0,0,28.56,7.72Z"/><path class="cls-1" d="M4.26,16.34a11,11,0,0,1-.2-1.64l-2,.13a13.29,13.29,0,0,0,.24,1.91Z"/><path class="cls-1" d="M25,6a11.59,11.59,0,0,1,1,1.3l1.67-1.11a12.36,12.36,0,0,0-1.18-1.52Z"/><path class="cls-1" d="M19.83,2.58a11.92,11.92,0,0,1,1.52.64l.89-1.8A15.35,15.35,0,0,0,20.47.68Z"/><path class="cls-1" d="M22.65,4A11.5,11.5,0,0,1,24,5l1.33-1.5a15.83,15.83,0,0,0-1.52-1.18Z"/><path class="cls-1" d="M28,14.71a11,11,0,0,1-.2,1.64l2,.4A15,15,0,0,0,30,14.83Z"/><path class="cls-1" d="M24,23a12.69,12.69,0,0,1-1.31,1l1.11,1.67a12.36,12.36,0,0,0,1.52-1.18Z"/><path class="cls-1" d="M26,20.61a12.79,12.79,0,0,1-1,1.31l1.51,1.32a14.68,14.68,0,0,0,1.18-1.52Z"/><path class="cls-1" d="M27.8,11.58a11,11,0,0,1,.2,1.64l2-.13a13.29,13.29,0,0,0-.24-1.91Z"/><path class="cls-1" d="M27.41,17.79a13,13,0,0,1-.64,1.53l1.79.89a14,14,0,0,0,.75-1.78Z"/><path class="cls-1" d="M9.37,24a12.56,12.56,0,0,1-1.29-1L6.75,24.45a15.7,15.7,0,0,0,1.51,1.18Z"/><path class="cls-1" d="M7,21.89a11.33,11.33,0,0,1-1-1.3L4.35,21.7a14.28,14.28,0,0,0,1.17,1.52Z"/><path class="cls-1" d="M5.28,19.29a12.77,12.77,0,0,1-.63-1.52l-1.9.64a14.52,14.52,0,0,0,.74,1.78Z"/><path class="cls-1" d="M16,4a10,10,0,0,0-5,18.63V27a5,5,0,1,0,10,0V22.55A10,10,0,0,0,16,4Zm5,16.17a8.08,8.08,0,0,1-2,1.19V27a3,3,0,0,1-6,0V21.35a8,8,0,0,1-2-1.18,8,8,0,1,1,10,0Z"/></svg>