<?xml version="1.0" encoding="utf-8"?>
<!-- Generator: Adobe Illustrator 17.0.0, SVG Export Plug-In . SVG Version: 6.00 Build 0)  -->
<!DOCTYPE svg PUBLIC "-//W3C//DTD SVG 1.1//EN" "http://www.w3.org/Graphics/SVG/1.1/DTD/svg11.dtd">
<svg version="1.1" id="Layer_1" xmlns="http://www.w3.org/2000/svg" xmlns:xlink="http://www.w3.org/1999/xlink" x="0px" y="0px"
	 width="512px" height="512px" viewBox="0 0 512 512" enable-background="new 0 0 512 512" xml:space="preserve">
<g>
	<path fill="#545861" d="M256.105,237c42.351,0,76.684-34.333,76.684-76.684s-34.333-76.684-76.684-76.684
		s-76.684,34.333-76.684,76.684S213.754,237,256.105,237z M256.105,106.221c29.828,0,54.096,24.267,54.096,54.096
		s-24.267,54.096-54.096,54.096s-54.096-24.267-54.096-54.096S226.277,106.221,256.105,106.221z"/>
	<path fill="#545861" d="M256.105,270.395c-83.781,0-152.801,69.571-163.263,159.551h246.609v-22.588H120.06
		c17.755-66.702,72.733-114.375,136.045-114.375c63.311,0,118.29,47.673,136.044,114.375c0,0,3.286,14.158,4.48,22.588h22.739
		C408.905,339.966,339.887,270.395,256.105,270.395z"/>
</g>
</svg>
