<?xml version="1.0" encoding="utf-8"?>
<!-- Generator: Adobe Illustrator 17.0.0, SVG Export Plug-In . SVG Version: 6.00 Build 0)  -->
<!DOCTYPE svg PUBLIC "-//W3C//DTD SVG 1.1//EN" "http://www.w3.org/Graphics/SVG/1.1/DTD/svg11.dtd">
<svg version="1.1" id="Layer_1" xmlns="http://www.w3.org/2000/svg" xmlns:xlink="http://www.w3.org/1999/xlink" x="0px" y="0px"
	 width="512px" height="512px" viewBox="0 0 512 512" enable-background="new 0 0 512 512" xml:space="preserve">
<g>
	<path fill="#545861" d="M255.738,353.13c-53.086,0-96.276-43.189-96.276-96.276c0-39.141,23.513-72.835,57.126-87.873v-24.255
		c-46.381,16.201-79.714,60.222-79.714,112.128c0,65.642,53.222,118.864,118.864,118.864c55.912,0,102.683-38.663,115.359-90.674
		h-23.314C335.7,324.415,299.017,353.13,255.738,353.13z"/>
	<path fill="#545861" d="M347.851,228.926h23.313c-9.473-39.258-38.365-70.847-76-84.099v24.287
		C320.301,180.455,339.739,202.222,347.851,228.926z"/>
	<path fill="#545861" d="M255.739,83.676c-95.636,0-173.176,77.541-173.176,173.176c0,95.637,77.54,173.176,173.176,173.176
		s173.176-77.54,173.176-173.176C428.915,161.218,351.375,83.676,255.739,83.676z M255.739,407.441
		c-83.035,0-150.588-67.553-150.588-150.588c0-79.647,62.202-144.877,140.555-150.08v124.3h22.588V106.901
		c77.168,6.415,138.033,71.156,138.033,149.952C406.327,339.888,338.774,407.441,255.739,407.441z"/>
</g>
</svg>
